<svg xmlns="http://www.w3.org/2000/svg" viewBox="0 0 512 512">
  <rect width="512" height="512" rx="80" fill="#0f172a"/>
  <!-- Blue blocks (top-left) -->
  <rect x="40" y="40" width="100" height="100" rx="14" fill="#3b82f6"/>
  <rect x="150" y="40" width="100" height="100" rx="14" fill="#3b82f6"/>
  <rect x="40" y="150" width="100" height="100" rx="14" fill="#3b82f6"/>
  <!-- Yellow blocks (top-right) -->
  <rect x="372" y="40" width="100" height="100" rx="14" fill="#eab308"/>
  <rect x="262" y="40" width="100" height="100" rx="14" fill="#eab308"/>
  <rect x="372" y="150" width="100" height="100" rx="14" fill="#eab308"/>
  <!-- Red blocks (bottom-right) -->
  <rect x="372" y="372" width="100" height="100" rx="14" fill="#ef4444"/>
  <rect x="262" y="372" width="100" height="100" rx="14" fill="#ef4444"/>
  <rect x="372" y="262" width="100" height="100" rx="14" fill="#ef4444"/>
  <!-- Green blocks (bottom-left) -->
  <rect x="40" y="372" width="100" height="100" rx="14" fill="#22c55e"/>
  <rect x="150" y="372" width="100" height="100" rx="14" fill="#22c55e"/>
  <rect x="40" y="262" width="100" height="100" rx="14" fill="#22c55e"/>
  <!-- Center accent -->
  <rect x="206" y="206" width="100" height="100" rx="14" fill="#6366f1"/>
</svg>
